<?xml version="1.0" encoding="UTF-8" standalone="no"?>
<!-- Created with Inkscape (http://www.inkscape.org/) -->

<svg
   width="56.536968mm"
   height="64.952538mm"
   viewBox="0 0 56.536968 64.952538"
   version="1.1"
   id="svg1"
   xml:space="preserve"
   inkscape:version="1.4.2 (ebf0e940d0, 2025-05-08)"
   sodipodi:docname="DokiSeven.svg"
   xmlns:inkscape="http://www.inkscape.org/namespaces/inkscape"
   xmlns:sodipodi="http://sodipodi.sourceforge.net/DTD/sodipodi-0.dtd"
   xmlns="http://www.w3.org/2000/svg"
   xmlns:svg="http://www.w3.org/2000/svg"><sodipodi:namedview
     id="namedview1"
     pagecolor="#ffffff"
     bordercolor="#000000"
     borderopacity="0.25"
     inkscape:showpageshadow="2"
     inkscape:pageopacity="0.0"
     inkscape:pagecheckerboard="0"
     inkscape:deskcolor="#d1d1d1"
     inkscape:document-units="mm"
     inkscape:zoom="1.2275954"
     inkscape:cx="225.64438"
     inkscape:cy="66.797253"
     inkscape:window-width="2048"
     inkscape:window-height="1102"
     inkscape:window-x="0"
     inkscape:window-y="0"
     inkscape:window-maximized="1"
     inkscape:current-layer="g64"
     showguides="false"
     inkscape:export-bgcolor="#ffffff00"><inkscape:page
       x="0"
       y="0"
       width="56.536968"
       height="64.952538"
       id="page2"
       margin="0"
       bleed="0" /></sodipodi:namedview><defs
     id="defs1" /><g
     inkscape:groupmode="layer"
     id="layer2"
     inkscape:label="组件"
     style="display:none;opacity:1"
     transform="translate(-9.2332668,-100.53782)"><path
       id="path1"
       style="display:inline;fill:#ffffff;stroke-width:0.392416;stroke-linejoin:round"
       d="M 94.832971,67.0295 A 44.614658,44.614658 0 0 0 50.21864,111.64435 44.614658,44.614658 0 0 0 94.832971,156.2592 44.614658,44.614658 0 0 0 139.44782,111.64435 44.614658,44.614658 0 0 0 94.832971,67.0295 Z m -5.17e-4,4.957837 A 39.657475,39.657475 0 0 1 134.48998,111.64486 39.657475,39.657475 0 0 1 94.832454,151.30239 39.657475,39.657475 0 0 1 55.174927,111.64486 39.657475,39.657475 0 0 1 94.832454,71.987337 Z"
       inkscape:label="外部圆环" /><path
       id="path4"
       style="display:inline;fill:#ffffff;stroke-width:0.467962;stroke-linejoin:round"
       d="M 94.946659,74.677096 A 36.729012,36.729012 0 0 0 58.217635,111.40612 36.729012,36.729012 0 0 0 94.946659,148.13514 36.729012,36.729012 0 0 0 131.67568,111.40612 36.729012,36.729012 0 0 0 94.946659,74.677096 Z m 5.17e-4,1.523938 A 35.204987,35.204987 0 0 1 130.15175,111.40612 35.204987,35.204987 0 0 1 94.947176,146.61121 35.204987,35.204987 0 0 1 59.74209,111.40612 35.204987,35.204987 0 0 1 94.947176,76.201034 Z"
       inkscape:label="中间圆环" /><path
       style="fill:#59ff00;fill-opacity:1;stroke-width:0.4;stroke-linejoin:round"
       d="m 68.861757,133.62845 -3.232947,3.34071 7.543541,6.46589 -2.801887,10.56096 8.405661,6.03483 4.741654,-20.36756 z"
       id="path6"
       inkscape:label="圆规左腿挖去齿轮" /><path
       style="fill:#34ff00;fill-opacity:1;stroke-width:0.4;stroke-linejoin:round"
       d="m 52.57888,82.754583 8.229738,3.048053 4.114869,-4.267272 -4.267272,-7.924932 7.924932,-6.096103 7.010517,7.010516 4.724479,-3.200453 -0.152403,-8.534542 7.620127,-1.828829 0.914416,8.991748 11.887397,0.457208 1.37163,-9.448956 8.53454,2.133634 0.45721,9.906166 4.87688,1.676427 6.2485,-5.943698 7.77253,5.48649 -3.35285,8.534543 3.65766,3.962466 7.46772,-3.200453 4.72448,8.991751 -6.40091,5.638895 1.98124,5.791298 7.46772,0.1524 0.60961,10.21097 -8.07733,1.52403 -0.76202,6.2485 6.70572,4.11487 -3.81007,9.14415 -7.31532,-1.82883 -4.57208,5.9437 4.57208,5.6389 -7.01052,6.85811 -5.9437,-4.41967 -11.12538,4.26727 2.89565,6.85811 -10.05857,2.74325 -3.352858,-7.16292 -7.010519,0.60961 -2.286037,6.55331 -10.515777,-1.82883 1.828831,-7.16292 -10.820579,-4.87688 -5.181688,4.11487 -8.229737,-6.40091 4.419674,-6.40091 -4.267271,-5.33409 -7.010519,1.67643 -3.962467,-9.75376 7.010519,-3.81007 -1.371623,-6.55331 -7.620127,-1.21922 0.60961,-10.21097 7.924933,-0.76201 2.133634,-6.400907 -6.400906,-4.267272 z"
       id="path10"
       inkscape:label="齿轮轮廓" /><circle
       style="display:none;fill:#fbc80b;fill-opacity:1;stroke-width:0.878535;stroke-linejoin:round"
       id="path45"
       cx="94.834"
       cy="111.644"
       r="42.481365"
       inkscape:label="齿轮中圆" /><circle
       style="display:none;opacity:1;fill:#fbc80b;fill-opacity:1;stroke-width:1.039;stroke-linejoin:round"
       id="path45-5"
       cx="94.834366"
       cy="111.64436"
       r="50.240437"
       inkscape:label="齿轮齿大圆" /></g><g
     inkscape:groupmode="layer"
     id="g64"
     inkscape:label="一体"
     style="display:inline;opacity:1"
     transform="translate(-9.2332668,-100.53782)"><path
       id="path55-3-3"
       style="display:inline;fill:#cd0000;fill-opacity:1;stroke-width:0.2209;stroke-linejoin:round"
       inkscape:label="总Logo"
       d="m 54.324448,100.69402 c -0.55568,-0.32082 -1.26113,-0.13179 -1.58195,0.42388 l -2.66361,4.61349 c -0.32082,0.55567 -0.1318,1.26112 0.42388,1.58194 l 0.12217,0.0705 -0.50194,0.86938 a 6.5516376,6.5516044 0 0 0 -8.29912,2.72695 6.5516376,6.5516044 0 0 0 2.39804,8.94963 6.5516376,6.5516044 0 0 0 8.94968,-2.39805 6.5516376,6.5516044 0 0 0 -1.78771,-8.55056 l 0.50194,-0.86938 0.0784,0.0452 c 0.55567,0.32081 1.26138,0.13193 1.58222,-0.42374 l 2.6636,-4.61349 c 0.3208,-0.55566 0.13153,-1.26127 -0.42413,-1.58208 z m -6.22218,4.68452 a 28.28149,28.281346 0 0 0 -4.23264,-1.33759 l -1.60361,2.89569 a 25.114609,25.114482 0 0 0 -4.13735,-0.45021 l -0.85042,-3.17381 -2.5e-4,-1.5e-4 a 28.28149,28.281346 0 0 0 -5.76131,0.63699 l -0.097,3.27308 a 25.114609,25.114482 0 0 0 -3.95312,1.34203 l -2.09474,-2.52546 a 28.28149,28.281346 0 0 0 -5.27559,3.25327 l 1.43698,2.9055 a 25.114609,25.114482 0 0 0 -2.92202,2.83047 l -2.99396,-1.36477 a 28.28149,28.281346 0 0 0 -2.6205,3.78889 28.28149,28.281346 0 0 0 -0.65901,1.20832 l 2.51817,2.04572 a 25.114609,25.114482 0 0 0 -1.43622,3.71518 l -3.26541,-0.0842 a 28.28149,28.281346 0 0 0 -0.9210005,6.05119 l 3.1420805,0.93368 a 25.114609,25.114482 0 0 0 0.27698,3.9989 l -2.9739203,1.41059 a 28.28149,28.281346 0 0 0 1.6937703,5.71237 l 3.24255,-0.48189 a 25.114609,25.114482 0 0 0 0.80066,1.61003 l 2.06543,-2.07583 a 22.324098,22.323985 0 0 1 0.67394,-21.06577 22.324098,22.323985 0 0 1 22.73706,-10.90102 8.1288831,8.1288421 0 0 1 6.84842,-3.34549 z m 6.79621,3.92724 -0.54214,0.68764 a 8.1288831,8.1288421 0 0 1 0.53736,7.62108 22.324098,22.323985 0 0 1 1.92735,25.1406 22.324098,22.323985 0 0 1 -18.0343,11.1241 l -0.71336,2.82152 a 25.114609,25.114482 0 0 0 1.69515,-0.0969 l 1.31411,3.04147 a 28.28149,28.281346 0 0 0 5.44582,-1.25412 l -0.5053,-3.17812 a 25.114609,25.114482 0 0 0 4.15253,-1.94573 l 2.35418,2.2762 a 28.28149,28.281346 0 0 0 4.51773,-3.52253 l -1.57255,-2.90046 a 25.114609,25.114482 0 0 0 2.57342,-3.10464 l 3.09202,1.08381 a 28.28149,28.281346 0 0 0 0.84088,-1.36565 28.28149,28.281346 0 0 0 1.85125,-3.85279 l -2.75597,-1.66701 a 25.114609,25.114482 0 0 0 1.05755,-3.79239 l 3.32866,-0.67 a 28.28149,28.281346 0 0 0 0.25407,-5.89379 l -3.20335,-0.3819 a 25.114609,25.114482 0 0 0 -0.60254,-3.73812 l 2.70164,-2.15323 a 28.28149,28.281346 0 0 0 -2.09721,-5.16367 l -3.18853,0.76937 a 25.114609,25.114482 0 0 0 -2.32523,-3.4079 l 1.5719,-3.03793 a 28.28149,28.281346 0 0 0 -3.67489,-3.43875 28.28149,28.281346 0 0 0 -2.6e-4,-1.5e-4 z m -5.52052,1.69301 a 3.7611253,3.7611063 0 0 1 1.37687,5.13778 3.7611253,3.7611063 0 0 1 -5.13788,1.37648 3.7611253,3.7611063 0 0 1 -1.37666,-5.13763 3.7611253,3.7611063 0 0 1 5.13767,-1.37663 z m 4.71195,8.02361 a 8.1288831,8.1288421 0 0 1 -0.55261,0.69301 19.817691,19.817591 0 0 1 1.23602,21.70226 19.817691,19.817591 0 0 1 -10.75229,8.84348 l 0.12091,0.86456 a 20.6756,20.675495 0 0 0 11.3743,-9.27911 20.6756,20.675495 0 0 0 -1.42633,-22.8242 z m -14.03762,-8.04443 a 20.6756,20.675495 0 0 0 -20.34725,10.19315 20.6756,20.675495 0 0 0 -2.4038,14.21166 l 0.82863,-0.23673 a 19.817691,19.817591 0 0 1 2.31835,-13.54586 19.817691,19.817591 0 0 1 19.28527,-9.79488 8.1288831,8.1288421 0 0 1 0.3188,-0.82734 z m 9.59212,11.16261 a 8.1288831,8.1288421 0 0 1 -5.13125,-0.25886 c -1.36913,4.69419 -3.38447,11.60347 -5.35615,18.35949 l -4.06783,-2.34856 1.1268,-1.95165 c 0.16914,-0.29296 0.0692,-0.6651 -0.22376,-0.83424 l -0.81825,-0.47241 c -0.29296,-0.16914 -0.66495,-0.0695 -0.83409,0.22349 l -1.1268,1.95165 -4.02727,-2.32513 c 2.44026,-2.55084 4.90836,-5.13025 7.18867,-7.51339 l 1.4e-4,-2.5e-4 -0.10773,-2.52804 3.7115,-3.72666 c 0,0 -1.28718,-1.94931 -1.74875,-2.93973 l -13.67825,14.0324 -2.14867,-1.24053 c -0.30871,-0.17823 -0.70076,-0.0732 -0.87899,0.23553 l -0.0238,0.0413 c -0.17824,0.30871 -0.0732,0.70076 0.2355,0.87899 l 1.85468,1.07079 -5.57979,5.72452 1.29183,3.09813 -4.29183,4.03654 -1.07278,-0.68957 -2.8816,8.3881 c 0,0 -0.0819,0.68813 0.47288,0.27301 0.5549,-0.41514 1.96333,-2.02583 2.17312,-2.23905 0.20981,-0.21321 0.1764,-0.45534 -0.0422,-0.65585 0.11858,-0.1364 7.08285,-7.42008 14.5764,-15.25348 l 4.30968,2.48818 -1.04825,1.81562 c -0.16914,0.29296 -0.0696,0.6652 0.22335,0.83434 l 0.81825,0.47242 c 0.29297,0.16914 0.66536,0.0694 0.8345,-0.2236 l 1.04825,-1.81562 4.35023,2.5116 c -0.94244,3.22913 -1.86438,6.38741 -2.68956,9.21274 0.87865,-0.10488 2.73138,-0.32411 3.06403,-0.34782 0.43909,-0.0313 0.37677,-0.2151 0.37677,-0.2151 0,0 0.57184,-2.50667 0.81262,-3.34833 0.24076,-0.84167 1.30296,-1.10425 1.30296,-1.10425 l 1.37907,-0.0946 0.40013,-1.42027 1.85492,1.07094 c 0.3087,0.17823 0.70077,0.0732 0.87901,-0.23552 l 0.0238,-0.0413 c 0.17823,-0.3087 0.0732,-0.70077 -0.23554,-0.879 l -2.14892,-1.24068 z m -10.04111,-5.77365 -0.66748,0.68482 c 0.22601,0.89588 0.87533,2.3769 2.20017,3.58963 -1.06146,1.19507 -3.81397,3.98965 -3.81397,3.98965 l 0.0344,1.31341 c 1.88406,-1.96899 3.6105,-3.7733 5.04822,-5.27565 a 8.1288831,8.1288421 0 0 1 -2.80136,-4.30186 z m 3.13778,30.27803 c -0.0455,0.001 -0.0931,7.3e-4 -0.14316,-0.001 -1.38992,-0.0494 -1.42159,0.70291 -1.42159,0.70291 l -0.96098,3.78801 -4.40396,0.56545 c -1.69427,5.80022 -2.91947,9.98815 -2.958,10.10006 -0.28289,-0.0891 -0.50959,0.003 -0.58936,0.29123 -0.0797,0.2883 -0.7702,2.31351 -0.85227,3.00163 -0.082,0.68811 0.47286,0.273 0.47286,0.273 l 5.82355,-6.68955 -1.13367,-0.58467 1.34984,-5.73509 3.32884,-0.43007 z m -20.49188,-2.61523 -0.59116,0.63179 a 20.6756,20.675495 0 0 0 5.61477,4.75289 20.6756,20.675495 0 0 0 6.72889,2.45263 l 0.23977,-0.82895 a 19.817691,19.817591 0 0 1 -6.53947,-2.36645 19.817691,19.817591 0 0 1 -5.4528,-4.64191 z m -1.8286,1.95358 -4.09283,4.37313 a 28.28149,28.281346 0 0 0 1.16553,1.23757 l 2.4e-4,1.4e-4 3.07562,2.56842 2.40483,-2.07369 a 25.114609,25.114482 0 0 0 1.9568,1.25403 25.114609,25.114482 0 0 0 2.08902,1.07913 l -0.28401,3.30082 5.17836,1.36295 1.59791,-5.52536 a 22.324098,22.323985 0 0 1 -7.18638,-2.63414 22.324098,22.323985 0 0 1 -5.90509,-4.943 z"
       inkscape:export-filename="DokiSeven-Red.svg"
       inkscape:export-xdpi="320"
       inkscape:export-ydpi="320" /></g></svg>
